<?xml version="1.0" encoding="UTF-8"?>
<svg width="39px" height="39px" viewBox="0 0 39 39" version="1.1" xmlns="http://www.w3.org/2000/svg" xmlns:xlink="http://www.w3.org/1999/xlink">
    <!-- Generator: Sketch 63 (92445) - https://sketch.com -->
    <title>Group 10</title>
    <desc>Created with Sketch.</desc>
    <g id="UI_Version-05" stroke="none" stroke-width="1" fill="none" fill-rule="evenodd">
        <g id="UX-Performance" transform="translate(-187.000000, -157.000000)">
            <g id="Group-10" transform="translate(187.000000, 157.000000)">
                <g id="Alert-Bell-Icon">
                    <circle id="Oval" fill="#ED1929" fill-rule="evenodd" cx="19.5" cy="19.5" r="19.5"></circle>
                    <path d="M25.9925918,22.9442949 L25.9925918,17.5247402 C25.9925918,14.5209941 23.9686367,11.9810664 21.2128145,11.1971348 L21.2128145,10.1214355 C21.2128145,8.95166992 20.2611445,8 19.0913789,8 C17.9216133,8 16.9699434,8.95166992 16.9699434,10.1214355 L16.9699434,11.1971797 C14.214166,11.9810664 12.1901211,14.5209941 12.1901211,17.5247402 L12.1901211,22.9442949 C10.9598906,23.0813066 10,24.127043 10,25.393166 L10,25.5879023 C10,26.9469238 11.1056172,28.052541 12.4645938,28.052541 L16.3767949,28.052541 L16.3767949,28.2854609 C16.3767949,29.7823027 17.594582,31.0000898 19.0914238,31.0000898 C20.5882656,31.0000898 21.8060527,29.7823027 21.8060527,28.2854609 L21.8060527,28.052541 L25.718209,28.052541 C27.0772305,28.052541 28.1828477,26.9469238 28.1828477,25.5879023 L28.1828477,25.393166 C28.1828477,24.127043 27.2228223,23.0812617 25.9925918,22.9442949 Z M18.3656211,10.1214355 C18.3656211,9.72122656 18.6912148,9.39563281 19.0914238,9.39563281 C19.4916328,9.39563281 19.8172266,9.72122656 19.8172266,10.1214355 L19.8172266,10.9601719 C19.6842578,10.9521309 19.5503457,10.9475039 19.4154004,10.9475039 L18.7674023,10.9475039 C18.632457,10.9475039 18.4985449,10.9520859 18.3656211,10.960127 L18.3656211,10.1214355 L18.3656211,10.1214355 Z M13.5857539,17.5247402 C13.5857539,14.6675742 15.9101914,12.3431367 18.7673574,12.3431367 L19.4153555,12.3431367 C22.2725215,12.3431367 24.596959,14.6675742 24.596959,17.5247402 L24.596959,22.9286172 L13.5857539,22.9286172 L13.5857539,17.5247402 Z M19.0913789,29.6044121 C18.3640938,29.6044121 17.7723828,29.0127012 17.7723828,28.285416 L17.7723828,28.0524961 L20.4103301,28.0524961 L20.4103301,28.285416 L20.410375,28.285416 C20.410375,29.0127461 19.8186641,29.6044121 19.0913789,29.6044121 Z M26.7871699,25.5878574 L26.7871699,25.5878574 C26.7871699,26.1772773 26.3075391,26.6568633 25.7181191,26.6568633 L12.4645938,26.6568633 C11.8751738,26.6568633 11.3956328,26.1772773 11.3956328,25.5878574 L11.3956328,25.3931211 C11.3956328,24.8037012 11.8751738,24.3241602 12.4645938,24.3241602 L12.8879824,24.3241602 L25.2947754,24.3241602 L25.7181641,24.3241602 C26.307584,24.3241602 26.7871699,24.8037012 26.7871699,25.3931211 L26.7871699,25.5878574 Z" id="Shape" fill="#FFFFFF" fill-rule="nonzero"></path>
                </g>
            </g>
        </g>
    </g>
</svg>