<?xml version="1.0" encoding="UTF-8"?>
<svg width="20px" height="17px" viewBox="0 0 20 17" version="1.1" xmlns="http://www.w3.org/2000/svg" xmlns:xlink="http://www.w3.org/1999/xlink">
    <!-- Generator: Sketch 63 (92445) - https://sketch.com -->
    <title>UX Benchmarking Logo</title>
    <desc>Created with Sketch.</desc>
    <g id="UI_Version-05" stroke="none" stroke-width="1" fill="none" fill-rule="evenodd">
        <g id="Dashboard-Expanded-View---UX-Monitoring" transform="translate(-39.000000, -208.000000)" fill="#8C8EA6">
            <g id="Group-2" transform="translate(39.000000, 208.000000)">
                <g id="UX-Benchmarking-Logo">
                    <g id="knob-2">
                        <g id="knob" fill-rule="nonzero">
                            <path d="M10,0 C4.49808594,0 0,4.58914582 0,10.2024414 C0,10.6719928 0.373085938,11.0526316 0.833320312,11.0526316 C1.29355469,11.0526316 1.66664062,10.6719928 1.66664062,10.2024414 C1.66664062,5.52824867 5.41855469,1.70042019 9.99996094,1.70042019 C14.5813672,1.70042019 18.3332812,5.52828853 18.3332812,10.2024414 C18.3332812,10.6719928 18.7063672,11.0526316 19.1666016,11.0526316 C19.6268359,11.0526316 20,10.6719928 20,10.2024414 C20,4.58914582 15.5019141,0 10,0 Z" id="Path"></path>
                            <path d="M14.0940716,6.95855994 C14.0922495,6.9567378 14.0902723,6.95526459 14.0884502,6.95348122 C13.0412251,5.90896996 11.5961149,5.26315789 10,5.26315789 C6.80230372,5.26315789 4.21052632,7.85497407 4.21052632,11.0526316 C4.21052632,14.2502891 6.80230372,16.8421053 10,16.8421053 C13.1976963,16.8421053 15.7894737,14.2503279 15.7894737,11.0526316 C15.7894737,9.45651664 15.1436616,8.01140651 14.0991504,6.96418143 C14.0974058,6.96235929 14.0958938,6.96034331 14.0940716,6.95855994 Z M10,15.1879921 C7.71585369,15.1879921 5.8646395,13.3367779 5.8646395,11.0526316 C5.8646395,8.76848527 7.71585369,6.91727108 10,6.91727108 C10.8429131,6.91727108 11.6267036,7.16961774 12.2804245,7.60254986 L9.41517139,10.467803 C9.09218782,10.7907865 9.09218782,11.3144766 9.41517139,11.6374602 C9.73815496,11.9604438 10.261845,11.9604438 10.5848286,11.6374602 L13.4500817,8.77220708 C13.8830138,9.42592799 14.1353605,10.2097185 14.1353605,11.0526316 C14.1353605,13.3367779 12.2841463,15.1879921 10,15.1879921 Z" id="Shape"></path>
                        </g>
                    </g>
                </g>
            </g>
        </g>
    </g>
</svg>