<?xml version="1.0" encoding="UTF-8"?>
<svg width="10px" height="10px" viewBox="0 0 10 10" version="1.1" xmlns="http://www.w3.org/2000/svg" xmlns:xlink="http://www.w3.org/1999/xlink">
    <!-- Generator: Sketch 63 (92445) - https://sketch.com -->
    <title>calendar</title>
    <desc>Created with Sketch.</desc>
    <g id="UI_Version-05" stroke="none" stroke-width="1" fill="none" fill-rule="evenodd">
        <g id="Dashboard-Expanded-View---UX-Monitoring" transform="translate(-342.000000, -486.000000)" fill="#8C8EA6" fill-rule="nonzero">
            <g id="Group-43" transform="translate(310.000000, 216.000000)">
                <g id="Group-22" transform="translate(24.000000, 262.000000)">
                    <g id="calendar" transform="translate(8.000000, 8.000000)">
                        <g transform="translate(0.000000, -0.000000)" id="Calender-Icon-Small-Card">
                            <g transform="translate(-0.000000, 0.000000)">
                                <g>
                                    <path d="M8.85414123,10 L1.14585877,10 C0.513763437,10 0,9.48623656 0,8.85414123 L0,1.97914123 C0,1.3470459 0.513763437,0.83335877 1.14585877,0.83335877 L8.85414123,0.83335877 C9.48623656,0.83335877 10,1.3470459 10,1.97914123 L10,8.85414123 C10,9.48623656 9.48623656,10 8.85414123,10 Z M1.14585877,1.45835877 C0.858764648,1.45835877 0.625,1.69204711 0.625,1.97914123 L0.625,8.85414123 C0.625,9.14123535 0.858764648,9.375 1.14585877,9.375 L8.85414123,9.375 C9.14123535,9.375 9.375,9.14123535 9.375,8.85414123 L9.375,1.97914123 C9.375,1.69204711 9.14123535,1.45835877 8.85414123,1.45835877 L1.14585877,1.45835877 Z" id="Shape"></path>
                                    <path d="M2.39585877,2.5 C2.22335816,2.5 2.08335877,2.36000061 2.08335877,2.1875 L2.08335877,0.3125 C2.08335877,0.139999395 2.22335816,0 2.39585877,0 C2.56835938,0 2.70835877,0.139999395 2.70835877,0.3125 L2.70835877,2.1875 C2.70835877,2.36000061 2.56835938,2.5 2.39585877,2.5 Z" id="Path"></path>
                                    <path d="M7.60414123,2.5 C7.43164062,2.5 7.29164123,2.36000061 7.29164123,2.1875 L7.29164123,0.3125 C7.29164123,0.139999395 7.43164062,0 7.60414123,0 C7.77664184,0 7.91664123,0.139999395 7.91664123,0.3125 L7.91664123,2.1875 C7.91664123,2.36000061 7.77664184,2.5 7.60414123,2.5 Z" id="Path"></path>
                                    <path d="M9.6875,3.95835877 L0.3125,3.95835877 C0.139999395,3.95835877 0,3.81835938 0,3.64585877 C0,3.47335816 0.139999395,3.33335877 0.3125,3.33335877 L9.6875,3.33335877 C9.86000061,3.33335877 10,3.47335816 10,3.64585877 C10,3.81835938 9.86000061,3.95835877 9.6875,3.95835877 Z" id="Path"></path>
                                </g>
                            </g>
                        </g>
                    </g>
                </g>
            </g>
        </g>
    </g>
</svg>