<?xml version="1.0" encoding="UTF-8"?>
<svg width="24px" height="24px" viewBox="0 0 24 24" version="1.1" xmlns="http://www.w3.org/2000/svg" xmlns:xlink="http://www.w3.org/1999/xlink">
    <!-- Generator: Sketch 63 (92445) - https://sketch.com -->
    <title>close</title>
    <desc>Created with Sketch.</desc>
    <g id="UI_Version-05" stroke="none" stroke-width="1" fill="none" fill-rule="evenodd">
        <g id="Cards-hover/selected" transform="translate(-1286.000000, -83.000000)" fill="#C3CAE8" fill-rule="nonzero">
            <g id="close" transform="translate(1286.000000, 83.000000)">
                <path d="M12,24 C5.38311769,24 0,18.6168823 0,12 C0,5.38311769 5.38311769,0 12,0 C18.6168823,0 24,5.38311769 24,12 C24,18.6168823 18.6168823,24 12,24 Z M12,1.71423337 C6.32849119,1.71423337 1.71423337,6.32849119 1.71423337,12 C1.71423337,17.6715088 6.32849119,22.2857666 12,22.2857666 C17.6715088,22.2857666 22.2857666,17.6715088 22.2857666,12 C22.2857666,6.32849119 17.6715088,1.71423337 12,1.71423337 Z" id="Shape"></path>
                <path d="M16.1667334,17 C15.9534656,17 15.7401978,16.9186447 15.5774876,16.7557562 L7.24419877,8.42244881 C6.91860041,8.09684973 6.91860041,7.56955364 7.24419877,7.24413256 C7.56961912,6.91871149 8.09709205,6.91853348 8.4225124,7.24413256 L16.7558012,15.5774399 C17.0813996,15.903039 17.0813996,16.4303351 16.7558012,16.7557562 C16.593091,16.9186447 16.3800012,17 16.1667334,17 L16.1667334,17 Z" id="Path"></path>
                <path d="M7.83327212,17 C7.62000289,17 7.40691168,16.9186453 7.2442004,16.7557578 C6.91859987,16.4303389 6.91859987,15.9028683 7.2442004,15.5774494 L15.5775449,7.24419768 C15.9031454,6.91860077 16.4304438,6.91860077 16.7558664,7.24419768 C17.0812889,7.56961658 17.0814669,8.09708716 16.7558664,8.42250606 L8.42252189,16.7557578 C8.25981065,16.9186453 8.04654139,17 7.83327212,17 L7.83327212,17 Z" id="Path"></path>
            </g>
        </g>
    </g>
</svg>