<?xml version="1.0" encoding="UTF-8"?>
<svg width="40px" height="40px" viewBox="0 0 40 40" version="1.1" xmlns="http://www.w3.org/2000/svg" xmlns:xlink="http://www.w3.org/1999/xlink">
    <!-- Generator: Sketch 63 (92445) - https://sketch.com -->
    <title>Delete Icon</title>
    <desc>Created with Sketch.</desc>
    <g id="Delete-Icon" stroke="none" stroke-width="1" fill="none" fill-rule="evenodd">
        <g id="Group-4">
            <circle id="Oval" fill="#F9FAFC" cx="20" cy="20" r="20"></circle>
            <g id="Delete-Buttton-Blue" transform="translate(13.500000, 12.000000)" fill="#0050A0" fill-rule="nonzero">
                <path d="M8.70825785,5.79693539 C8.50129062,5.79693539 8.33355059,5.96467546 8.33355059,6.17164265 L8.33355059,13.2536099 C8.33355059,13.4604307 8.50129062,13.6283171 8.70825785,13.6283171 C8.91522504,13.6283171 9.08296511,13.4604307 9.08296511,13.2536099 L9.08296511,6.17164265 C9.08296511,5.96467546 8.91522504,5.79693539 8.70825785,5.79693539 Z" id="Path"></path>
                <path d="M4.28671218,5.79693539 C4.07974495,5.79693539 3.91200492,5.96467546 3.91200492,6.17164265 L3.91200492,13.2536099 C3.91200492,13.4604307 4.07974495,13.6283171 4.28671218,13.6283171 C4.49367938,13.6283171 4.66141944,13.4604307 4.66141944,13.2536099 L4.66141944,6.17164265 C4.66141944,5.96467546 4.49367938,5.79693539 4.28671218,5.79693539 Z" id="Path"></path>
                <path d="M1.06422975,4.76341667 L1.06422975,13.9954131 C1.06422975,14.5410806 1.26431754,15.053522 1.61384916,15.4212035 C1.96177069,15.7899096 2.44596277,15.9992187 2.95269577,16.000097 L10.0422742,16.000097 C10.5491536,15.9992187 11.0333457,15.7899096 11.3811208,15.4212035 C11.7306525,15.053522 11.9307403,14.5410806 11.9307403,13.9954131 L11.9307403,4.76341667 C12.6255588,4.57899044 13.0757929,3.90773749 12.982848,3.1947691 C12.8897567,2.4819471 12.2824674,1.9487211 11.5634979,1.94857474 L9.645026,1.94857474 L9.645026,1.48019066 C9.64722152,1.08630892 9.49148382,0.708088781 9.21264893,0.429839376 C8.93381405,0.151736332 8.55500842,-0.00312315327 8.16112668,4.77537837e-05 L4.83384331,4.77537837e-05 C4.43996157,-0.00312315327 4.06115595,0.151736332 3.78232106,0.429839376 C3.50348618,0.708088781 3.34774847,1.08630892 3.34994403,1.48019066 L3.34994403,1.94857474 L1.43147212,1.94857474 C0.71250257,1.9487211 0.105213352,2.4819471 0.0121219798,3.1947691 C-0.080822957,3.90773749 0.369411235,4.57899044 1.06422975,4.76341667 Z M10.0422742,15.2506825 L2.95269577,15.2506825 C2.31203419,15.2506825 1.81364427,14.7003312 1.81364427,13.9954131 L1.81364427,4.79634991 L11.1813258,4.79634991 L11.1813258,13.9954131 C11.1813258,14.7003312 10.6829358,15.2506825 10.0422742,15.2506825 Z M4.09935855,1.48019066 C4.09687023,1.28507943 4.17356812,1.09728668 4.31203419,0.9595525 C4.45035385,0.821818317 4.63858568,0.746144987 4.83384331,0.749511507 L8.16112668,0.749511507 C8.35638427,0.746144987 8.54461614,0.821818317 8.68293581,0.9595525 C8.82140187,1.09714032 8.89809976,1.28507943 8.89561148,1.48019066 L8.89561148,1.94857474 L4.09935855,1.94857474 L4.09935855,1.48019066 Z M1.43147212,2.69798926 L11.5634979,2.69798926 C11.9360096,2.69798926 12.2379709,2.99995063 12.2379709,3.37246233 C12.2379709,3.74497403 11.9360096,4.04693539 11.5634979,4.04693539 L1.43147212,4.04693539 C1.05896039,4.04693539 0.756999057,3.74497403 0.756999057,3.37246233 C0.756999057,2.99995063 1.05896039,2.69798926 1.43147212,2.69798926 Z" id="Shape"></path>
                <path d="M6.49748501,5.79693539 C6.29051778,5.79693539 6.12277775,5.96467546 6.12277775,6.17164265 L6.12277775,13.2536099 C6.12277775,13.4604307 6.29051778,13.6283171 6.49748501,13.6283171 C6.70445221,13.6283171 6.87219227,13.4604307 6.87219227,13.2536099 L6.87219227,6.17164265 C6.87219227,5.96467546 6.70445221,5.79693539 6.49748501,5.79693539 Z" id="Path"></path>
            </g>
        </g>
    </g>
</svg>