<?xml version="1.0" encoding="UTF-8"?>
<svg width="17px" height="17px" viewBox="0 0 17 17" version="1.1" xmlns="http://www.w3.org/2000/svg" xmlns:xlink="http://www.w3.org/1999/xlink">
    <!-- Generator: Sketch 63 (92445) - https://sketch.com -->
    <title>UX Diagnostic Logo</title>
    <desc>Created with Sketch.</desc>
    <g id="UI_Version-05" stroke="none" stroke-width="1" fill="none" fill-rule="evenodd">
        <g id="Dashboard-Expanded-View---UX-Monitoring" transform="translate(-39.000000, -326.000000)" fill="#8C8EA6">
            <g id="Group-4" transform="translate(39.000000, 326.000000)">
                <g id="UX-Diagnostic-Logo">
                    <g id="database">
                        <path d="M8.5,0 C3.8239707,0 0,1.39054688 0,3.54167773 L0,8.5 L0,13.4583223 C0,15.6094531 3.8239707,17 8.5,17 C13.1760293,17 17,15.6094531 17,13.4583223 L17,8.5 L17,3.54167773 C17,1.39054688 13.1760625,0 8.5,0 Z M8.5,1.41667773 C12.4300879,1.41667773 15.5833223,2.56334766 15.5833223,3.54167773 C15.5833223,4.52000781 12.4300547,5.66667773 8.5,5.66667773 C4.56994531,5.66667773 1.41667773,4.52000781 1.41667773,3.54167773 C1.41667773,2.56334766 4.56991211,1.41667773 8.5,1.41667773 Z M15.5833223,13.4583223 C15.5833223,14.4366523 12.4300547,15.5833223 8.5,15.5833223 C4.56994531,15.5833223 1.41667773,14.4366523 1.41667773,13.4583223 L1.41667773,10.5413945 C1.42218945,10.5448145 1.42806641,10.5481348 1.43361133,10.5515547 C1.46903906,10.5733691 1.50509766,10.5949512 1.5416875,10.6163672 C1.55038672,10.6214473 1.55878711,10.626627 1.56755273,10.6316738 C1.6129082,10.6579043 1.65919336,10.6837695 1.70627539,10.7093359 C1.7190918,10.7163086 1.73227344,10.7231484 1.74522266,10.7300547 C1.78028516,10.7487813 1.81567969,10.767375 1.85163867,10.7857363 C1.86840625,10.7943027 1.88533984,10.8028027 1.90230664,10.8113027 C1.93667187,10.828502 1.97146875,10.8455352 2.00663086,10.8624023 C2.02293359,10.8702383 2.03913672,10.8781074 2.05557227,10.8858438 C2.1005625,10.9070273 2.14615039,10.9279453 2.19236914,10.9486309 C2.19867773,10.9514531 2.20482031,10.954375 2.21116211,10.9571641 C2.26375586,10.9805059 2.3173125,11.0034492 2.3714668,11.026127 C2.38737109,11.0327676 2.40357422,11.0393086 2.41961133,11.0458828 C2.45882422,11.0620195 2.49833594,11.0779902 2.5383125,11.0937617 C2.55757031,11.1013652 2.57692773,11.1089023 2.59635156,11.1164063 C2.63592969,11.1317129 2.67590625,11.1467871 2.71621484,11.1617617 C2.73401172,11.1683691 2.75164258,11.1750098 2.76957227,11.1815508 C2.82714648,11.202502 2.88521875,11.2232207 2.9442207,11.2434746 C2.94441992,11.243541 2.94458594,11.2436074 2.94478516,11.2436738 C3.00398633,11.2639941 3.06411719,11.2838828 3.12471289,11.3034727 C3.14347266,11.3095488 3.16249805,11.3154922 3.18135742,11.3214688 C3.22435547,11.3351152 3.26761914,11.3486289 3.31124805,11.3619102 C3.33263086,11.368418 3.35408008,11.3748926 3.37562891,11.381334 C3.42032031,11.3946484 3.46541016,11.4077637 3.51076563,11.4207129 C3.52949219,11.4260586 3.54805273,11.4315039 3.56691211,11.4367832 C3.6305625,11.4546133 3.69474414,11.4721777 3.75968945,11.4892773 C3.76749219,11.4913359 3.77546094,11.4932949 3.78326367,11.4953203 C3.84073828,11.5103281 3.89871094,11.5250703 3.95714844,11.5395137 C3.97866406,11.5448262 4.0003457,11.5500059 4.02199414,11.555252 C4.0683457,11.5664746 4.11492969,11.577498 4.16187891,11.5883555 C4.18502148,11.5937012 4.20819727,11.5990469 4.23147266,11.604293 C4.28160937,11.6156152 4.33211133,11.6266719 4.38291211,11.6375957 C4.40153906,11.6416133 4.42,11.6456973 4.43872656,11.6496484 C4.50768945,11.6641914 4.57718359,11.6784023 4.64727539,11.6921484 C4.66085547,11.6948047 4.67466797,11.6973281 4.68828125,11.6999844 C4.74542383,11.711041 4.80286523,11.7218984 4.86070508,11.732457 C4.88441211,11.7367734 4.90825195,11.7409902 4.93205859,11.745207 C4.98173047,11.7540391 5.03163477,11.7627051 5.08180469,11.7711387 C5.10627539,11.7752559 5.13074609,11.7794063 5.15534961,11.7834238 C5.21119727,11.7925879 5.26737695,11.8014531 5.32382227,11.8101523 C5.34145313,11.812875 5.35891797,11.8156973 5.37661523,11.8183867 C5.45029297,11.8295098 5.52446875,11.8402344 5.59914258,11.8505273 C5.61693945,11.8529844 5.63490234,11.8552754 5.65276563,11.8576992 C5.71033984,11.8654688 5.76811328,11.8730723 5.82621875,11.880377 C5.85201758,11.8836309 5.87791602,11.886752 5.90381445,11.8899063 C5.95627539,11.8962813 6.00896875,11.902457 6.06186133,11.9084336 C6.08752734,11.9113223 6.11312695,11.9142773 6.13889258,11.9170664 C6.20134766,11.923873 6.26413477,11.9303809 6.3271543,11.9366563 C6.3420625,11.9381504 6.35683789,11.9397441 6.3717793,11.9412051 C6.44950781,11.9487422 6.52770117,11.9558477 6.60629297,11.9625547 C6.62767578,11.9643809 6.64925781,11.966041 6.67070703,11.9678008 C6.7288125,11.972582 6.78708398,11.9771973 6.8456543,11.9815137 C6.87298047,11.9835391 6.90040625,11.9854648 6.92783203,11.9873906 C6.98324805,11.9912754 7.03883008,11.9949277 7.09461133,11.9983809 C7.12067578,12.0000078 7.14664062,12.001668 7.17277148,12.0031953 C7.24359375,12.0073457 7.31468164,12.0111641 7.38606836,12.0146504 C7.3960293,12.0151484 7.40592383,12.0157461 7.41591797,12.0162109 C7.49706641,12.0200625 7.57864648,12.0233828 7.66049219,12.0263711 C7.68453125,12.0272344 7.70866992,12.0279316 7.73274219,12.0287285 C7.79171094,12.0306875 7.8508125,12.0324473 7.91011328,12.0339746 C7.93860156,12.0347051 7.96715625,12.0353691 7.99571094,12.0359668 C8.05408203,12.0372285 8.11261914,12.0382578 8.17125586,12.0390547 C8.19702148,12.0394199 8.22275391,12.0398516 8.24858594,12.0401504 C8.332125,12.0410469 8.41586328,12.0416113 8.49993359,12.0416113 C8.58400391,12.0416113 8.66777539,12.0410469 8.75128125,12.0401504 C8.77711328,12.0398848 8.8028125,12.0394199 8.82861133,12.0390547 C8.88728125,12.0382246 8.94581836,12.0372285 9.00415625,12.0359668 C9.03271094,12.0353359 9.06126563,12.0347051 9.08975391,12.0339746 C9.14905469,12.0324805 9.20815625,12.0306875 9.267125,12.0287285 C9.29119727,12.0279316 9.31536914,12.0272344 9.339375,12.0263711 C9.4212207,12.0233828 9.50280078,12.0200625 9.58394922,12.0162109 C9.59394336,12.0157461 9.60380469,12.0151484 9.61379883,12.0146504 C9.68518555,12.0111641 9.75627344,12.0073457 9.8270957,12.0031953 C9.85322656,12.001668 9.87919141,12.0000078 9.90525586,11.9983809 C9.96103711,11.9949277 10.0166523,11.9912422 10.0720684,11.9873906 C10.0994941,11.9854648 10.1268867,11.9835391 10.1542129,11.9815137 C10.2127832,11.9771973 10.2710547,11.972582 10.3291934,11.9678008 C10.3506426,11.966041 10.3721914,11.9643809 10.3935742,11.9625547 C10.4721328,11.9558477 10.5503262,11.9487422 10.6280879,11.9412051 C10.6430293,11.9397441 10.6578047,11.9381504 10.6727129,11.9366563 C10.7357324,11.9303809 10.7985195,11.923873 10.8609746,11.9170664 C10.8867402,11.9142441 10.9123398,11.9113223 10.9380059,11.9084336 C10.9908984,11.902457 11.0435918,11.8962813 11.0960527,11.8899063 C11.1219512,11.886752 11.1478496,11.8836309 11.1736484,11.880377 C11.2317539,11.8730723 11.2895605,11.865502 11.3471016,11.8576992 C11.3649316,11.8552754 11.3829277,11.8529844 11.4007246,11.8505273 C11.4753984,11.8402012 11.5495742,11.8295098 11.623252,11.8183867 C11.640916,11.8157305 11.6583809,11.812875 11.6760117,11.8101855 C11.7324902,11.8014863 11.7887031,11.7926211 11.8445508,11.783457 C11.8691211,11.7794395 11.8935918,11.7752891 11.9180625,11.7711719 C11.9682324,11.7627051 12.0181699,11.7540723 12.0678418,11.7452402 C12.0916484,11.7409902 12.1155215,11.7368066 12.1391953,11.7324902 C12.1970684,11.7219316 12.2545762,11.7110742 12.3117187,11.7000176 C12.3252988,11.6973945 12.3390449,11.6948711 12.3525918,11.6922148 C12.4227168,11.6784355 12.4922109,11.6642578 12.5611738,11.6497148 C12.5799004,11.6457637 12.5983613,11.6416465 12.6169883,11.6376621 C12.6677559,11.6267715 12.7182578,11.6156816 12.7683613,11.6043594 C12.7916699,11.5990801 12.8148457,11.5937676 12.8380215,11.5883887 C12.8849707,11.5775313 12.9315879,11.5664746 12.9779395,11.5552852 C12.9995215,11.5500723 13.0212031,11.5448926 13.0426855,11.5395801 C13.1011562,11.5251367 13.1591621,11.5103945 13.2166367,11.4953867 C13.2244395,11.4933613 13.2324082,11.4914023 13.2401777,11.4893437 C13.305123,11.4722441 13.3693379,11.4546797 13.4329883,11.4368496 C13.4517812,11.4315703 13.4703086,11.4261582 13.489002,11.4208457 C13.5343906,11.4078965 13.5795137,11.3947812 13.6242383,11.3814336 C13.6457871,11.3750254 13.6672363,11.3685176 13.6886191,11.3620098 C13.7322812,11.3487285 13.7755449,11.3352148 13.8185098,11.3215684 C13.8374023,11.3155586 13.8563945,11.3096484 13.8751543,11.3035723 C13.9357832,11.2839492 13.9958809,11.2640937 14.055082,11.2437734 C14.0552812,11.243707 14.0554473,11.2436406 14.0556465,11.2435742 C14.1146152,11.2233203 14.1726875,11.2026016 14.2302617,11.1816504 C14.2482246,11.1751094 14.2659219,11.1684355 14.283752,11.1618281 C14.3239941,11.1468867 14.3639375,11.1318125 14.4034492,11.1165391 C14.4229062,11.109002 14.4422969,11.1014648 14.4615879,11.0938613 C14.5015312,11.078123 14.5410098,11.0621523 14.5801895,11.0460156 C14.5962266,11.0394082 14.6124629,11.0329004 14.6284004,11.0262266 C14.6825547,11.003582 14.7360781,10.9806387 14.7886719,10.9572969 C14.7951133,10.9544414 14.8013223,10.9514863 14.8077305,10.9486309 C14.8538496,10.9280117 14.8993711,10.907127 14.9442617,10.8859766 C14.9607637,10.878207 14.9769668,10.8703379 14.9933027,10.862502 C15.0284648,10.8456348 15.0632285,10.8286016 15.0975937,10.8114023 C15.1145605,10.8029023 15.1314941,10.7944023 15.1482617,10.7858359 C15.1841875,10.7674746 15.219582,10.7488809 15.2546113,10.7301875 C15.2675937,10.723248 15.2808086,10.7164082 15.2936582,10.7094023 C15.340707,10.6838359 15.386959,10.6580039 15.4323145,10.6317734 C15.4411465,10.6266602 15.4496133,10.6214473 15.4583789,10.616334 C15.4948691,10.5949844 15.5308613,10.5734355 15.5662227,10.5516543 C15.5718008,10.5482344 15.5776777,10.5449141 15.5833223,10.5414609 L15.5833223,13.4583223 L15.5833223,13.4583223 Z M8.5,10.625 C4.56991211,10.625 1.41667773,9.47833008 1.41667773,8.5 L1.41667773,5.58307227 C1.42218945,5.58649219 1.428,5.5897793 1.43354492,5.59316602 C1.46900586,5.61501367 1.50513086,5.63662891 1.54175391,5.65804492 C1.55041992,5.663125 1.55882031,5.66827148 1.56755273,5.67331836 C1.61294141,5.69954883 1.65925977,5.72544727 1.7063418,5.75101367 C1.71905859,5.75791992 1.73214063,5.76469336 1.74499023,5.77156641 C1.78015234,5.79035937 1.81564648,5.80898633 1.85170508,5.82741406 C1.86843945,5.83594727 1.88533984,5.84444727 1.90224023,5.85291406 C1.93663867,5.87011328 1.97143555,5.88714648 2.00663086,5.90404687 C2.02293359,5.91188281 2.03913672,5.91975195 2.05557227,5.92748828 C2.1005625,5.94867187 2.14615039,5.96958984 2.19236914,5.99027539 C2.19867773,5.99309766 2.20482031,5.99601953 2.21116211,5.99880859 C2.26378906,6.02215039 2.3173125,6.04509375 2.3714668,6.06777148 C2.38730469,6.07441211 2.40347461,6.08091992 2.41947852,6.08749414 C2.45879102,6.10366406 2.49836914,6.11966797 2.53847852,6.13547266 C2.55760352,6.14300977 2.57686133,6.15051367 2.59618555,6.15798437 C2.63586328,6.17332422 2.67597266,6.18846484 2.71638086,6.20343945 C2.73411133,6.21001367 2.75170898,6.2166543 2.76957227,6.22316211 C2.82714648,6.24411328 2.88525195,6.26483203 2.9442207,6.28511914 C2.94441992,6.28518555 2.94458594,6.28525195 2.94478516,6.28531836 C3.00398633,6.30563867 3.06411719,6.32552734 3.12471289,6.34511719 C3.14347266,6.35119336 3.16249805,6.35713672 3.18135742,6.36311328 C3.22435547,6.37675977 3.26761914,6.39027344 3.31124805,6.40355469 C3.33263086,6.4100625 3.35408008,6.41653711 3.37562891,6.42297852 C3.42032031,6.43629297 3.46541016,6.4494082 3.51076563,6.46235742 C3.52949219,6.46770312 3.54805273,6.47314844 3.56691211,6.47842773 C3.6305625,6.49625781 3.69474414,6.51382227 3.75968945,6.53092187 C3.76745898,6.53298047 3.77536133,6.53490625 3.78313086,6.53693164 C3.84070508,6.55197266 3.89874414,6.56671484 3.95728125,6.58119141 C3.97869727,6.5864707 4.0002793,6.59165039 4.02182813,6.59683008 C4.06821289,6.60805273 4.11486328,6.61910937 4.1618457,6.6299668 C4.18498828,6.6353125 4.20816406,6.6406582 4.23143945,6.6459043 C4.28157617,6.65722656 4.33207813,6.66831641 4.38287891,6.67920703 C4.40150586,6.68322461 4.4199668,6.68730859 4.43869336,6.69125977 C4.50765625,6.70580273 4.57715039,6.72001367 4.64724219,6.73375977 C4.66082227,6.73641602 4.67463477,6.73893945 4.68824805,6.7415957 C4.74539063,6.75265234 4.80283203,6.76350977 4.86067188,6.77406836 C4.88437891,6.77838477 4.90821875,6.78260156 4.93202539,6.78681836 C4.98169727,6.79565039 5.03160156,6.80431641 5.08177148,6.81275 C5.10624219,6.81686719 5.13071289,6.82101758 5.15531641,6.82503516 C5.21116406,6.83419922 5.26734375,6.84306445 5.32378906,6.85176367 C5.34141992,6.85448633 5.35888477,6.85730859 5.37658203,6.85999805 C5.45025977,6.87112109 5.52443555,6.8818457 5.59910938,6.89213867 C5.61680664,6.8945957 5.63470313,6.89685352 5.6524668,6.89927734 C5.71017383,6.90708008 5.76811328,6.91468359 5.82638477,6.92198828 C5.85208398,6.92520898 5.87784961,6.92833008 5.90364844,6.93148437 C5.95620898,6.93785937 6.00900195,6.94403516 6.06199414,6.95004492 C6.08752734,6.95293359 6.11302734,6.95585547 6.13866016,6.95864453 C6.20124805,6.96548437 6.26420117,6.97199219 6.32738672,6.97826758 C6.34219531,6.97972852 6.3569043,6.98135547 6.37174609,6.9827832 C6.44947461,6.99032031 6.52766797,6.99742578 6.60625977,7.00413281 C6.62764258,7.00595898 6.64922461,7.00761914 6.67067383,7.00937891 C6.7287793,7.01416016 6.78705078,7.01877539 6.84562109,7.0230918 C6.87294727,7.02511719 6.90037305,7.02704297 6.92779883,7.02896875 C6.98321484,7.03285352 7.03879688,7.03650586 7.09457813,7.03995898 C7.12064258,7.04158594 7.14660742,7.04324609 7.17273828,7.04477344 C7.24356055,7.04892383 7.31464844,7.05274219 7.38603516,7.05622852 C7.39599609,7.05672656 7.40589063,7.05732422 7.41588477,7.05778906 C7.4970332,7.06164062 7.57861328,7.06496094 7.66045898,7.06794922 C7.68449805,7.0688125 7.70863672,7.06950977 7.73270898,7.07030664 C7.79167773,7.07226562 7.8507793,7.07402539 7.91008008,7.07555273 C7.93856836,7.0762832 7.96712305,7.07694727 7.99567773,7.07754492 C8.05404883,7.07880664 8.11258594,7.07983594 8.17122266,7.08063281 C8.19698828,7.08099805 8.2227207,7.08142969 8.24855273,7.08172852 C8.3320918,7.082625 8.41583008,7.08318945 8.49990039,7.08318945 C8.5839707,7.08318945 8.66774219,7.082625 8.75124805,7.08172852 C8.77708008,7.08146289 8.8027793,7.08099805 8.82857813,7.08063281 C8.88724805,7.07980273 8.94578516,7.07880664 9.00412305,7.07754492 C9.03267773,7.07691406 9.06123242,7.0762832 9.0897207,7.07555273 C9.14902148,7.07405859 9.20812305,7.07226562 9.2670918,7.07030664 C9.29116406,7.06950977 9.31533594,7.0688125 9.3393418,7.06794922 C9.4211875,7.06496094 9.50276758,7.06164062 9.58391602,7.05778906 C9.59391016,7.05732422 9.60377148,7.05672656 9.61376562,7.05622852 C9.68515234,7.05274219 9.75624023,7.04892383 9.8270625,7.04477344 C9.85319336,7.04324609 9.8791582,7.04158594 9.90522266,7.03995898 C9.96100391,7.03650586 10.0166191,7.03282031 10.0720352,7.02896875 C10.0994609,7.02704297 10.1268535,7.02511719 10.1541797,7.0230918 C10.21275,7.01877539 10.2710215,7.01416016 10.3291602,7.00937891 C10.3506094,7.00761914 10.3721582,7.00595898 10.393541,7.00413281 C10.4720996,6.99742578 10.5503262,6.99032031 10.6280547,6.98275 C10.6428965,6.98132227 10.6576055,6.97969531 10.6724141,6.97823437 C10.7355996,6.97195898 10.7985195,6.96545117 10.8611406,6.95861133 C10.8867734,6.95582227 10.9122734,6.95290039 10.9378066,6.95001172 C10.9907988,6.94403516 11.0435918,6.93782617 11.0961523,6.93145117 C11.1219512,6.92833008 11.14775,6.92520898 11.173416,6.92195508 C11.2316875,6.91465039 11.289627,6.90701367 11.347334,6.89924414 C11.3650977,6.89685352 11.3829941,6.8945625 11.4006914,6.89210547 C11.4753652,6.8817793 11.549541,6.87108789 11.6232187,6.85996484 C11.6408828,6.85730859 11.6583477,6.85445312 11.6759785,6.85176367 C11.732457,6.84306445 11.7886699,6.83419922 11.8445176,6.82503516 C11.8690879,6.82101758 11.8935586,6.81686719 11.9180293,6.81275 C11.9681992,6.8042832 12.0181367,6.79565039 12.0678086,6.78681836 C12.0916152,6.78256836 12.1154883,6.77838477 12.1391621,6.77406836 C12.1970352,6.76350977 12.254543,6.75265234 12.3116855,6.7415957 C12.3252656,6.73897266 12.3390117,6.73644922 12.3525586,6.73379297 C12.4226836,6.72001367 12.4921777,6.70583594 12.5611406,6.69129297 C12.5798672,6.6873418 12.5983281,6.68322461 12.6169551,6.67924023 C12.6677227,6.66834961 12.7182246,6.65725977 12.7683281,6.6459375 C12.7916367,6.6406582 12.8148125,6.6353457 12.8379883,6.6299668 C12.8850039,6.61910937 12.9316543,6.60805273 12.9780723,6.59683008 C12.9995547,6.59161719 13.0211367,6.5864707 13.0425195,6.58119141 C13.1010898,6.56671484 13.1591621,6.55197266 13.2167695,6.53693164 C13.2245391,6.53490625 13.2324414,6.53298047 13.2401777,6.53092187 C13.305123,6.51382227 13.3693379,6.49625781 13.4329883,6.47842773 C13.4517812,6.47314844 13.4703086,6.46773633 13.489002,6.46242383 C13.5343906,6.44947461 13.5795137,6.43635937 13.6242383,6.42301172 C13.6457871,6.41660352 13.6672363,6.4100957 13.6886191,6.40358789 C13.7322813,6.39030664 13.7755449,6.37679297 13.8185098,6.36314648 C13.8374023,6.35713672 13.8563945,6.35122656 13.8751543,6.34515039 C13.9357832,6.32552734 13.9958809,6.30567187 14.055082,6.28535156 C14.0552813,6.28528516 14.0554473,6.28521875 14.0556465,6.28515234 C14.1146484,6.26489844 14.1727207,6.24417969 14.2302617,6.22322852 C14.2481914,6.2166875 14.2658223,6.21004687 14.2835859,6.20343945 C14.3239277,6.18846484 14.3639707,6.17335742 14.4036152,6.15805078 C14.4229727,6.15058008 14.4422637,6.14304297 14.4614551,6.13547266 C14.501498,6.11966797 14.5410762,6.10366406 14.5803223,6.08752734 C14.5963262,6.08095312 14.6124961,6.07444531 14.6283672,6.06780469 C14.6825215,6.04516016 14.7360449,6.0222168 14.7886387,5.9988418 C14.7950801,5.99598633 14.8012891,5.99303125 14.8076973,5.99017578 C14.8538164,5.96955664 14.8993379,5.94867187 14.9442285,5.92752148 C14.9607305,5.91975195 14.9769336,5.91188281 14.9932695,5.90404687 C15.0284316,5.88717969 15.0632285,5.87014648 15.097627,5.85291406 C15.1145605,5.84444727 15.1314277,5.83594727 15.1481621,5.82741406 C15.1841875,5.80898633 15.2196816,5.79035937 15.2548105,5.77159961 C15.2676934,5.76472656 15.2808086,5.75791992 15.2935586,5.75098047 C15.3406074,5.72541406 15.3869258,5.69954883 15.4322813,5.67331836 C15.4410801,5.66823828 15.4495469,5.66302539 15.4582793,5.65791211 C15.4948359,5.6365293 15.5308945,5.61494727 15.5662891,5.59313281 C15.571834,5.58971289 15.5776777,5.58642578 15.5831895,5.58300586 L15.5831895,8.5 C15.5831895,9.47833008 12.4300879,10.625 8.5,10.625 Z" id="Shape" fill-rule="nonzero"></path>
                    </g>
                </g>
            </g>
        </g>
    </g>
</svg>