<?xml version="1.0" encoding="UTF-8"?>
<svg width="36px" height="36px" viewBox="0 0 36 36" version="1.1" xmlns="http://www.w3.org/2000/svg" xmlns:xlink="http://www.w3.org/1999/xlink">
    <!-- Generator: Sketch 63 (92445) - https://sketch.com -->
    <title>Drag Icon</title>
    <desc>Created with Sketch.</desc>
    <g id="UI_Version-05" stroke="none" stroke-width="1" fill="none" fill-rule="evenodd">
        <g id="Cards-hover/selected" transform="translate(-318.000000, -259.000000)">
            <g id="Drag-Icon" transform="translate(318.000000, 259.000000)">
                <g id="Group-6">
                    <circle id="Oval" fill="#04E474" cx="18" cy="18" r="18"></circle>
                    <g id="Group" transform="translate(8.000000, 8.000000)" fill="#FFFFFF" fill-rule="nonzero">
                        <path d="M13.2083289,5 C13.0046402,5 12.8009515,4.90740996 12.6463295,4.72255183 L10.4484295,2.09790801 C10.3282367,1.95431938 10.1690791,1.8754433 10.0000258,1.8754433 C9.83097239,1.8754433 9.67160868,1.95431938 9.55162205,2.09790801 L7.35372206,4.72255183 C7.04592124,5.09031457 6.54453369,5.09275652 6.23405272,4.72816841 C5.92377795,4.36333604 5.92171635,3.76968991 6.22951717,3.40192717 L8.42741711,0.777283351 C8.84716425,0.275944162 9.40565884,0 10.0000258,0 C10.5943927,0 11.1528873,0.275944162 11.5726344,0.777283351 L13.7703282,3.40192717 C14.0783352,3.76968991 14.0762736,4.36333604 13.7657927,4.72816841 C13.6113768,4.90936355 13.4097498,5 13.2083289,5 Z" id="Path"></path>
                        <path d="M10.0000127,20 C9.40564769,20 8.84715493,19.7240558 8.42740916,19.2227166 L6.22951642,16.5980728 C5.92171661,16.2303101 5.9237782,15.636664 6.23405195,15.2718316 C6.54453191,14.9072435 7.04571167,14.9096854 7.35371762,15.2774482 L9.55161042,17.902092 C9.67159666,18.0456806 9.83095985,18.1245567 10.0000127,18.1245567 C10.1690655,18.1245567 10.3282225,18.0456806 10.448415,17.902092 L12.6463077,15.2774482 C12.9541076,14.9096854 13.4554935,14.9072435 13.7657672,15.2718316 C14.0762471,15.636664 14.0783088,16.2303101 13.770509,16.5980728 L11.5726162,19.2227166 C11.1528704,19.7240558 10.5943776,20 10.0000127,20 L10.0000127,20 Z" id="Path"></path>
                        <path d="M4.0622395,14 C3.82365773,14 3.58483172,13.9235131 3.40192717,13.7703332 L0.777039168,11.5726234 C0.275944162,11.1528732 0,10.5943746 0,10 C0,9.40563208 0.275944162,8.84713342 0.777039168,8.42738323 L3.40192717,6.22967346 C3.76944567,5.9216642 4.36333604,5.92372587 4.72816841,6.2342091 C5.09275652,6.54469227 5.09031457,7.04587732 4.72255183,7.35368037 L2.09790801,9.55159629 C1.95431938,9.67179 1.8754433,9.83094872 1.8754433,10 C1.8754433,10.1690579 1.95431938,10.3282166 2.09790801,10.4484103 L4.72255183,12.6463263 C5.09031457,12.9541293 5.09275652,13.4555205 4.72792416,13.7657975 C4.54477543,13.9218638 4.30350747,14 4.0622395,14 Z" id="Path"></path>
                        <path d="M15.9377605,14 C15.6964925,14 15.4552246,13.9218641 15.2718316,13.7657983 C14.9072435,13.4553161 14.9096854,12.9541327 15.2774482,12.6463307 L17.902092,10.448422 C18.0456806,10.3282287 18.1245567,10.1690705 18.1245567,10.0000164 C18.1245567,9.83096237 18.0456806,9.67159802 17.902092,9.55161085 L15.2774482,7.35370213 C14.9096854,7.04590008 14.9072435,6.54451053 15.2718316,6.23423452 C15.636664,5.92375231 16.2303101,5.92169065 16.5980728,6.22949275 L19.2229608,8.42740147 C19.7240558,8.84715029 20,9.40564712 20,10.0000164 C20,10.5943857 19.7240558,11.1528825 19.2229608,11.5726313 L16.5980728,13.7703339 C16.4151683,13.9235134 16.1763423,14 15.9377605,14 Z" id="Path"></path>
                        <path d="M10.5001001,13 C9.12150094,13 8,11.8785439 8,10.5 C8,9.12145606 9.12150094,8 10.5001001,8 C11.8786993,8 13,9.12145606 13,10.5 C13,11.8785439 11.8784991,13 10.5001001,13 L10.5001001,13 Z M10.5001001,9.53772223 C9.96948462,9.53772223 9.53778384,9.96940577 9.53778384,10.5 C9.53778384,11.0305942 9.96948462,11.4622778 10.5001001,11.4622778 C11.0307157,11.4622778 11.4622162,11.0305942 11.4622162,10.5 C11.4622162,9.96940577 11.0307157,9.53772223 10.5001001,9.53772223 L10.5001001,9.53772223 Z" id="Shape"></path>
                    </g>
                </g>
            </g>
        </g>
    </g>
</svg>