<?xml version="1.0" encoding="UTF-8"?>
<svg width="20px" height="19px" viewBox="0 0 20 19" version="1.1" xmlns="http://www.w3.org/2000/svg" xmlns:xlink="http://www.w3.org/1999/xlink">
    <!-- Generator: Sketch 63 (92445) - https://sketch.com -->
    <title>Icon Export Nav</title>
    <desc>Created with Sketch.</desc>
    <g id="UI_Version-05" stroke="none" stroke-width="1" fill="none" fill-rule="evenodd">
        <g id="Dashboard-Expanded-View---UX-Monitoring" transform="translate(-1126.000000, -50.000000)" fill="#C3CAE8" stroke="#C3CAE8">
            <g id="Icon-Export-Nav." transform="translate(1126.000000, 51.000000)">
                <g id="Export-PDF">
                    <g id="Group" transform="translate(0.701031, 0.181818)" fill-rule="nonzero" stroke-width="0.6">
                        <path d="M17.5621295,2.08832951e-13 L13.1965953,2.08832951e-13 C12.9547404,2.08832951e-13 12.7587249,0.185491145 12.7587249,0.414360719 C12.7587249,0.643230293 12.9547404,0.828721438 13.1965953,0.828721438 L16.5117536,0.828721438 L7.99466018,8.96573005 C7.83131397,9.12937018 7.83576111,9.38624146 8.00458066,9.54470203 C8.17340026,9.70316264 8.44501677,9.70494311 8.61640202,9.54907225 L17.1242591,1.42128963 L17.1242591,4.54550472 C17.1242591,4.77437426 17.3202745,4.95986544 17.5621295,4.95986544 C17.8039846,4.95986544 18,4.77437426 18,4.54550472 L18,0.414360719 C18,0.185491145 17.8039846,2.08832951e-13 17.5621295,2.08832951e-13 Z" id="Path"></path>
                        <path d="M15.2786361,9.55501241 C15.0182811,9.55501241 14.8072721,9.75643009 14.8072721,10.0049507 L14.8072721,14.9321267 C14.8063515,15.677337 14.1738768,16.2810628 13.3931803,16.2819416 L2.35681969,16.2819416 C1.57612317,16.2810628 0.943648499,15.677337 0.942727878,14.9321267 L0.942727878,4.3974188 C0.943648499,3.65220848 1.57612317,3.04848266 2.35681969,3.04760388 L7.51862306,3.04760388 C7.778978,3.04760388 7.98998699,2.84618621 7.98998699,2.59766558 C7.98998699,2.34914499 7.778978,2.14772727 7.51862306,2.14772727 L2.35681969,2.14772727 C1.0557816,2.14913333 0.00147301231,3.1555188 0,4.3974188 L0,14.9321267 C0.00147301231,16.1740267 1.0557816,17.1804121 2.35681969,17.1818182 L13.3931803,17.1818182 C14.6942184,17.1804121 15.748527,16.1740267 15.75,14.9321267 L15.75,10.0049507 C15.75,9.75643009 15.538991,9.55501241 15.2786361,9.55501241 Z" id="Path"></path>
                    </g>
                </g>
            </g>
        </g>
    </g>
</svg>