<?xml version="1.0" encoding="UTF-8"?>
<svg width="16px" height="16px" viewBox="0 0 16 16" version="1.1" xmlns="http://www.w3.org/2000/svg" xmlns:xlink="http://www.w3.org/1999/xlink">
    <!-- Generator: Sketch 63 (92445) - https://sketch.com -->
    <title>Pink Info</title>
    <desc>Created with Sketch.</desc>
    <g id="UI_Version-05" stroke="none" stroke-width="1" fill="none" fill-rule="evenodd">
        <g id="Dashboard-Expanded-View---UX-Monitoring" transform="translate(-839.000000, -52.000000)" fill="#C3CAE8" fill-rule="nonzero">
            <g id="Group-11" transform="translate(797.000000, 52.000000)">
                <g id="Pink-Info" transform="translate(42.000000, 0.000000)">
                    <g id="Info">
                        <g id="info-copy">
                            <g id="Info-Icon">
                                <path d="M8.66662597,4 C8.66662597,4.36816406 8.36816406,4.66662597 8,4.66662597 C7.63183594,4.66662597 7.33337403,4.36816406 7.33337403,4 C7.33337403,3.63183594 7.63183594,3.33337403 8,3.33337403 C8.36816406,3.33337403 8.66662597,3.63183594 8.66662597,4 Z" id="Path"></path>
                                <path d="M8,12.666626 C7.72399903,12.666626 7.5,12.4426269 7.5,12.166626 L7.5,7 L6.83337403,7 C6.55737306,7 6.33337403,6.77600097 6.33337403,6.5 C6.33337403,6.22399903 6.55737306,6 6.83337403,6 L8,6 C8.27600097,6 8.5,6.22399903 8.5,6.5 L8.5,12.166626 C8.5,12.4426269 8.27600097,12.666626 8,12.666626 Z" id="Path"></path>
                                <path d="M8,16 C3.58862306,16 0,12.4113769 0,8 C0,3.58862306 3.58862306,0 8,0 C12.4113769,0 16,3.58862306 16,8 C16,12.4113769 12.4113769,16 8,16 Z M8,1 C4.14001466,1 1,4.14001466 1,8 C1,11.8599853 4.14001466,15 8,15 C11.8599853,15 15,11.8599853 15,8 C15,4.14001466 11.8599853,1 8,1 Z" id="Shape"></path>
                                <path d="M9.5,12.666626 L6.5,12.666626 C6.22399903,12.666626 6,12.4426269 6,12.166626 C6,11.890625 6.22399903,11.666626 6.5,11.666626 L9.5,11.666626 C9.77600097,11.666626 10,11.890625 10,12.166626 C10,12.4426269 9.77600097,12.666626 9.5,12.666626 Z" id="Path"></path>
                            </g>
                        </g>
                    </g>
                </g>
            </g>
        </g>
    </g>
</svg>