<?xml version="1.0" encoding="UTF-8"?>
<svg width="11px" height="11px" viewBox="0 0 11 11" version="1.1" xmlns="http://www.w3.org/2000/svg" xmlns:xlink="http://www.w3.org/1999/xlink">
    <!-- Generator: Sketch 63 (92445) - https://sketch.com -->
    <title>internet (1)</title>
    <desc>Created with Sketch.</desc>
    <g id="UI_Version-05" stroke="none" stroke-width="1" fill="none" fill-rule="evenodd">
        <g id="Dashboard-Expanded-View---UX-Monitoring" transform="translate(-341.000000, -522.000000)" fill="#8C8EA6" fill-rule="nonzero">
            <g id="Group-43" transform="translate(310.000000, 216.000000)">
                <g id="Group-22" transform="translate(24.000000, 262.000000)">
                    <g id="internet-(1)" transform="translate(7.000000, 44.000000)">
                        <g id="Speed-Icon" transform="translate(-0.000000, 0.000000)">
                            <path d="M9.38909149,1.61090851 C8.3502884,0.572105402 6.96916198,0 5.50008392,0 L5.49991608,0 C4.03083802,0 2.6497116,0.572105402 1.61090851,1.61090851 C0.572105402,2.6497116 0,4.03092194 0,5.5 C0,6.96907806 0.572105402,8.3502884 1.61090851,9.38909149 C2.6497116,10.4278946 4.03092194,11 5.5,11 C6.96907806,11 8.3502884,10.4278946 9.38909149,9.38909149 C10.4278946,8.3502884 11,6.96907806 11,5.5 C11,4.03092194 10.4278946,2.6497116 9.38909149,1.61090851 Z M9.74836732,7.84859466 L8.13863372,7.84859466 C8.35431672,7.21665192 8.48423005,6.53242494 8.51452637,5.82226563 L10.3444748,5.82226563 C10.2963867,6.55340576 10.0857391,7.24073793 9.74836732,7.84859466 Z M5.5,10.3078003 C4.81401061,9.89959717 4.2450943,9.2668991 3.8358841,8.49312591 L7.1641159,8.49312591 C6.7549057,9.2668991 6.18598939,9.89959717 5.5,10.3078003 Z M3.54458618,7.84859466 C3.30758667,7.22680664 3.16390991,6.5402298 3.13067627,5.82226563 L7.86932373,5.82226563 C7.83609009,6.5402298 7.69232941,7.22680664 7.4553299,7.84859466 L3.54458618,7.84859466 Z M0.655525213,5.82226563 L2.48547363,5.82226563 C2.51576995,6.53242494 2.64568328,7.21665192 2.86136628,7.84859466 L1.25163268,7.84859466 C0.914260875,7.24073793 0.703613281,6.55340576 0.655525213,5.82226563 Z M1.25163268,3.15140534 L2.86136628,3.15140534 C2.64568328,3.78334808 2.51576995,4.46757506 2.48547363,5.17773438 L0.655525213,5.17773438 C0.703613281,4.44659424 0.914260875,3.75926207 1.25163268,3.15140534 Z M5.5,0.692199707 C6.18598939,1.10040283 6.7549057,1.7331009 7.1641159,2.50687409 L3.8358841,2.50687409 C4.2450943,1.7331009 4.81401061,1.10040283 5.5,0.692199707 Z M7.45541382,3.15140534 C7.69241333,3.77319336 7.83609009,4.4597702 7.86932373,5.17773438 L3.13067627,5.17773438 C3.16390991,4.4597702 3.30767059,3.77319336 3.5446701,3.15140534 L7.45541382,3.15140534 Z M10.3444748,5.17773438 L8.51452637,5.17773438 C8.48423005,4.46757506 8.35431672,3.78334808 8.13863372,3.15140534 L9.74836732,3.15140534 C10.0857391,3.75926207 10.2963867,4.44659424 10.3444748,5.17773438 Z M7.88056947,2.50687409 C7.57424927,1.84522248 7.16671753,1.26052856 6.67744447,0.789215088 C7.7394104,1.05474854 8.66416169,1.67066193 9.32069398,2.50687409 L7.88056947,2.50687409 Z M4.32255553,0.789215088 C3.83328247,1.26052856 3.42575073,1.84522248 3.11943053,2.50687409 L1.67930602,2.50687409 C2.33583831,1.67066193 3.2605896,1.05474854 4.32255553,0.789215088 Z M3.11943053,8.49312591 C3.42575073,9.15477752 3.83328247,9.73947144 4.32255553,10.2107849 C3.2605896,9.94525146 2.33583831,9.32933807 1.67930602,8.49312591 L3.11943053,8.49312591 Z M6.67744447,10.2107849 C7.16671753,9.73947144 7.57424927,9.1546936 7.88056947,8.49312591 L9.32069398,8.49312591 C8.66416169,9.32933807 7.7394104,9.94525146 6.67744447,10.2107849 Z" id="Shape"></path>
                        </g>
                    </g>
                </g>
            </g>
        </g>
    </g>
</svg>