<?xml version="1.0" encoding="UTF-8"?>
<svg width="16px" height="16px" viewBox="0 0 16 16" version="1.1" xmlns="http://www.w3.org/2000/svg" xmlns:xlink="http://www.w3.org/1999/xlink">
    <!-- Generator: Sketch 63 (92445) - https://sketch.com -->
    <title>UX Mobility Logo</title>
    <desc>Created with Sketch.</desc>
    <g id="UI_Version-05" stroke="none" stroke-width="1" fill="none" fill-rule="evenodd">
        <g id="Dashboard-Expanded-View---UX-Monitoring" transform="translate(-39.000000, -385.000000)" fill="#8C8EA6">
            <g id="Group-5" transform="translate(39.000000, 385.000000)">
                <g id="UX-Mobility-Logo">
                    <g id="strip">
                        <path d="M15.3333437,14.6666563 C14.5961875,14.6666563 14,14.0704688 14,13.3333125 C14,13.3197188 13.9987813,13.3064375 13.9979688,13.2930313 C15.2436563,11.8825625 16,10.0297188 16,8 C16,3.5818125 12.4181875,0 8,0 C3.5818125,0 0,3.5818125 0,8 C0,12.4181875 3.5818125,16 8,16 C9.831375,16 11.5186875,15.384125 12.867125,14.3488438 C13.2663438,15.3180625 14.2195312,16 15.3333437,16 C15.7015312,16 16,15.7015313 16,15.3333438 C16,14.9651563 15.7015313,14.6666563 15.3333437,14.6666563 Z M1.33334375,8 C1.33334375,4.3181875 4.3181875,1.33334375 8,1.33334375 C11.6818125,1.33334375 14.6666562,4.3181875 14.6666562,8 C14.6666562,11.6818125 11.6818125,14.6666562 8,14.6666562 C4.3181875,14.6666562 1.33334375,11.6818125 1.33334375,8 Z" id="Shape" fill-rule="nonzero"></path>
                        <path d="M8,5.33333333 C6.5271505,5.33333333 5.33333333,6.5271505 5.33333333,8 C5.33333333,9.4728495 6.5271505,10.6666667 8,10.6666667 C9.4728495,10.6666667 10.6666667,9.4728495 10.6666667,8 C10.6666667,6.5271505 9.4728495,5.33333333 8,5.33333333 Z M8,9.33334896 C7.26352837,9.33334896 6.66665104,8.73650288 6.66665104,8 C6.66665104,7.26349712 7.26349712,6.66665104 8,6.66665104 C8.73650288,6.66665104 9.33334896,7.26349712 9.33334896,8 C9.33334896,8.73650288 8.73647163,9.33334896 8,9.33334896 Z" id="Shape" fill-rule="nonzero"></path>
                    </g>
                </g>
            </g>
        </g>
    </g>
</svg>