<?xml version="1.0" encoding="UTF-8"?>
<svg width="23px" height="13px" viewBox="0 0 23 13" version="1.1" xmlns="http://www.w3.org/2000/svg" xmlns:xlink="http://www.w3.org/1999/xlink">
    <!-- Generator: Sketch 63 (92445) - https://sketch.com -->
    <title>Path</title>
    <desc>Created with Sketch.</desc>
    <g id="UI_Version-05" stroke="none" stroke-width="1" fill="none" fill-rule="evenodd">
        <g id="Dashboard-Expanded-View---UX-Monitoring" transform="translate(-39.000000, -152.000000)" fill="#0050A0" fill-rule="nonzero">
            <g id="Group" transform="translate(39.000000, 150.000000)">
                <g id="infinity" transform="translate(11.500000, 8.500000) scale(1, -1) translate(-11.500000, -8.500000) translate(0.000000, 2.000000)">
                    <path d="M16.7708184,0 C13.330791,0 10.5416367,2.91003988 10.5416367,6.5 C10.5416367,8.98507215 8.61093945,10.9999892 6.22913672,10.9999892 C3.84796289,10.9999892 1.91663672,8.98469715 1.91663672,6.5 C1.91663672,4.0146466 3.84760352,2.00001082 6.22913672,2.00001082 C6.83311133,2.00001082 7.41741016,2.12844801 7.9565625,2.37430679 C8.44153906,2.59546251 9.00652148,2.36450994 9.21846289,1.85844866 C9.4304043,1.35238737 9.20907422,0.762841916 8.72409766,0.541686198 C7.94384961,0.185858928 7.09828516,0 6.2290918,0 C2.78910938,0 0,2.91003988 0,6.5 C0,10.089257 2.78942383,13 6.22918164,13 C9.66956836,13 12.4583633,10.0895851 12.4583633,6.5 C12.4583633,4.0146466 14.3893301,2.00001082 16.7708633,2.00001082 C19.1530254,2.00001082 21.0833633,4.0142716 21.0833633,6.5 C21.0833633,8.98507215 19.152666,10.9999892 16.7708633,10.9999892 C16.1681914,10.9999892 15.5839824,10.8711301 15.044875,10.6248963 C14.5599883,10.4034594 13.994916,10.6340838 13.7827051,11.1400513 C13.5704941,11.6460189 13.7915098,12.2356581 14.2763965,12.4570951 C15.0566445,12.8134379 15.9023438,13 16.7709082,13 C20.2112051,13 23,10.0895851 23,6.5 C23,2.90971176 20.2115195,0 16.7708184,0 Z" id="Path"></path>
                </g>
            </g>
        </g>
    </g>
</svg>