<?xml version="1.0" encoding="UTF-8"?>
<svg width="19px" height="24px" viewBox="0 0 19 24" version="1.1" xmlns="http://www.w3.org/2000/svg" xmlns:xlink="http://www.w3.org/1999/xlink">
    <!-- Generator: Sketch 63 (92445) - https://sketch.com -->
    <title>Group</title>
    <desc>Created with Sketch.</desc>
    <g id="Symbols" stroke="none" stroke-width="1" fill="none" fill-rule="evenodd">
        <g id="Bell-Logo-Icon">
            <g id="Notification-Red">
                <g id="Group" transform="translate(0.644330, 0.000000)">
                    <path d="M17.3066932,16.9217792 C15.3544022,15.807372 13.9276515,13.9807257 13.3364865,11.8383189 L12.3738095,8.29863609 C11.6629651,5.67174304 9.28854248,3.81149388 6.52615651,3.71726352 L6.16585317,2.39519404 C5.90118478,1.42391037 4.88608024,0.847682906 3.89845497,1.107972 C2.91119121,1.3682611 2.32526891,2.36639158 2.58975653,3.33749746 L2.94951751,4.65885577 C0.609805538,6.10253573 -0.499487676,8.8777082 0.214249223,11.5017566 L1.17692626,15.0414394 C1.37000402,15.7492337 1.46780838,16.4790744 1.46780838,17.2119375 C1.46744684,18.6799751 1.07550621,20.122055 0.331216709,21.3945202 C0.120602869,21.7421057 0.148805239,22.1814324 0.402265022,22.5000376 C0.593173372,22.7469922 0.890382962,22.8920714 1.20567099,22.8922492 C1.29461693,22.8920714 1.38320127,22.8806927 1.46889311,22.8579351 L6.79209041,21.455681 C7.20084398,22.3901615 8.13459555,22.9967916 9.16904399,22.9999946 C9.90971776,23.0010586 10.6153194,22.6900985 11.1072338,22.1455182 C11.5991482,21.6011157 11.8303715,20.8753643 11.7421487,20.1522798 L17.0655268,18.7500256 C17.5109796,18.6323266 17.8188555,18.2333589 17.8143849,17.7799865 C17.8152397,17.4247559 17.6210773,17.0965498 17.3066932,16.9217792 L17.3066932,16.9217792 Z M3.41576054,2.32016537 C3.61426181,1.98200288 3.98125421,1.77380719 4.37843758,1.77398043 C4.88174141,1.77256263 5.32267463,2.1050357 5.45211627,2.58347694 L5.7648733,3.73290931 C5.72980114,3.73593178 5.69527131,3.74268794 5.66019915,3.74642159 C5.54359317,3.75797817 5.42789114,3.77273497 5.31291229,3.79051428 C5.25180713,3.7999373 5.19070198,3.80971593 5.12995841,3.82109469 C5.00178227,3.84527455 4.8750524,3.87283249 4.7497688,3.90341291 C4.72192798,3.91034685 4.69390643,3.91425827 4.6664272,3.92154782 C4.63894797,3.92883733 4.62159266,3.93612684 4.59899457,3.94234961 C4.45762118,3.98057509 4.31823638,4.02377882 4.18102099,4.07160515 C4.14396019,4.08422848 4.10924959,4.09738519 4.07327347,4.11054185 C3.9304538,4.16299083 3.7898035,4.22024023 3.65150343,4.28246779 C3.64083714,4.28709044 3.62944775,4.29082408 3.61860064,4.29580229 L3.30620516,3.14885899 C3.22846788,2.86936824 3.26787891,2.57085362 3.41576054,2.32016537 Z M11.0179263,20.3441185 C11.0694498,21.2067707 10.4970863,21.9862156 9.64812269,22.2095237 C8.79915904,22.4324763 7.90771109,22.0386645 7.51323946,21.2665091 L11.0179263,20.3441185 Z M16.8704604,18.0475651 L1.27563453,22.1549412 C1.16897174,22.1844549 1.05471599,22.1458738 0.988729687,22.058044 C0.919308469,21.9723477 0.911896319,21.8530486 0.970289653,21.759885 C1.78056546,20.3764769 2.20739746,18.8083417 2.20830138,17.2119375 C2.20848215,16.4152466 2.10218095,15.6221116 1.89174784,14.8528009 L0.929070805,11.3134737 C0.274088878,8.91006657 1.35228713,6.37473698 3.55243357,5.1456533 L3.5589418,5.14280861 C3.86989101,4.97497192 4.19656847,4.83700448 4.53427377,4.73068418 C4.64093656,4.69601452 4.74416448,4.65458874 4.85335827,4.62649745 C5.22740122,4.52906683 5.6106642,4.4698617 5.99718132,4.4495933 C6.07889588,4.44514849 6.16079121,4.44034806 6.24250577,4.43963689 L6.29963364,4.43963689 C8.8116332,4.44017028 11.0096102,6.10129117 11.6569992,8.48834134 L12.6196763,12.0283797 C13.263088,14.3569359 14.8143992,16.3419959 16.9368083,17.5527669 C17.0219577,17.5975708 17.0747467,17.685045 17.0739899,17.7799865 C17.0780009,17.9047972 16.9935746,18.0159179 16.8704604,18.0472095 L16.8704604,18.0475651 Z" id="Shape" stroke="#C3CAE8" stroke-width="0.6" fill="#C3CAE8" fill-rule="nonzero"></path>
                    <ellipse id="Oval" stroke="#FFFFFF" stroke-width="2" fill="#DC141C" cx="12.5748939" cy="5.22727273" rx="4.23953911" ry="4.22727273"></ellipse>
                </g>
            </g>
        </g>
    </g>
</svg>