<?xml version="1.0" encoding="UTF-8"?>
<svg width="17px" height="17px" viewBox="0 0 17 17" version="1.1" xmlns="http://www.w3.org/2000/svg" xmlns:xlink="http://www.w3.org/1999/xlink">
    <!-- Generator: Sketch 63 (92445) - https://sketch.com -->
    <title>UX Performance Logo</title>
    <desc>Created with Sketch.</desc>
    <g id="UI_Version-05" stroke="none" stroke-width="1" fill="none" fill-rule="evenodd">
        <g id="Dashboard-Expanded-View---UX-Monitoring" transform="translate(-39.000000, -267.000000)" fill="#8C8EA6">
            <g id="Group-3" transform="translate(39.000000, 267.000000)">
                <g id="UX-Performance-Logo">
                    <g id="share">
                        <path d="M14.1666777,12.0416777 C13.8385645,12.0416777 13.527916,12.1160859 13.2505371,12.2487988 L11.4547129,10.4529746 C11.8255586,9.89307031 12.0417109,9.22183594 12.0417109,8.5000332 C12.0417109,7.77823047 11.8255586,7.10696289 11.4547129,6.5470918 L12.7278203,5.27398437 C13.1495996,5.52317383 13.6412715,5.66671094 14.1667109,5.66671094 C15.7316074,5.66671094 17.0000332,4.39828516 17.0000332,2.83338867 C17.0000332,1.26849219 15.7315742,0 14.1666777,0 C12.6017812,0 11.3333555,1.26842578 11.3333555,2.83332227 C11.3333555,3.35876172 11.4768926,3.85040039 11.726082,4.27221289 L10.4529746,5.54532031 C9.89307031,5.17447461 9.22183594,4.95832227 8.5000332,4.95832227 C7.77823047,4.95832227 7.10696289,5.17447461 6.5470918,5.54532031 L4.04291211,3.04114063 C4.1755918,2.76376172 4.25,2.45311328 4.25,2.125 C4.25,0.951103516 3.29889648,0 2.125,0 C0.951103516,0 0,0.951103516 0,2.125 C0,3.29889648 0.951103516,4.25 2.125,4.25 C2.45311328,4.25 2.76376172,4.1755918 3.04114062,4.04287891 L5.54532031,6.54705859 C5.17447461,7.10692969 4.95832227,7.77819727 4.95832227,8.5 C4.95832227,9.22180273 5.17447461,9.89307031 5.54532031,10.4529414 L4.27221289,11.7260488 C3.85043359,11.4768594 3.35876172,11.3333223 2.83332227,11.3333223 C1.26842578,11.3333223 0,12.601748 0,14.1666777 C0,15.7316074 1.26842578,17 2.83332227,17 C4.39821875,17 5.66664453,15.7315742 5.66664453,14.1666777 C5.66664453,13.6412383 5.52310742,13.1495996 5.27391797,12.7277871 L6.54702539,11.4546797 C7.10692969,11.8255254 7.77816406,12.0416777 8.4999668,12.0416777 C9.22176953,12.0416777 9.89303711,11.8255254 10.4529082,11.4546797 L12.2487324,13.2505039 C12.1160195,13.5278828 12.0416113,13.8385312 12.0416113,14.1666445 C12.0416113,15.340541 12.9927148,16.2916445 14.1666113,16.2916445 C15.3405078,16.2916445 16.2916113,15.340541 16.2916113,14.1666445 C16.2916113,12.992748 15.3405742,12.0416777 14.1666777,12.0416777 Z M14.1666777,1.41667773 C14.9491758,1.41667773 15.5833555,2.05082422 15.5833555,2.83335547 C15.5833555,3.61588672 14.9491758,4.25 14.1666777,4.25 C13.7816211,4.25 13.4326895,4.09620312 13.1773574,3.84698047 C13.173373,3.84279687 13.1699199,3.83831445 13.1658027,3.83419727 C13.1616855,3.83008008 13.1572031,3.82662695 13.1530195,3.82264258 C12.9037969,3.56734375 12.75,3.21841211 12.75,2.83332227 C12.75,2.05082422 13.3841465,1.41667773 14.1666777,1.41667773 Z M1.41667773,2.125 C1.41667773,1.73350195 1.73350195,1.41667773 2.125,1.41667773 C2.51649805,1.41667773 2.83332227,1.73350195 2.83332227,2.125 C2.83332227,2.32010156 2.75456445,2.49660938 2.62716406,2.62467383 C2.62673242,2.62510547 2.62626758,2.6254375 2.62583594,2.62586914 C2.6254043,2.62630078 2.62507227,2.62676563 2.62464062,2.62719727 C2.49660937,2.75459766 2.32010156,2.83335547 2.1249668,2.83335547 C1.73350195,2.83332227 1.41667773,2.51649805 1.41667773,2.125 Z M2.83332227,15.5833223 C2.05082422,15.5833223 1.41664453,14.9491758 1.41664453,14.1666445 C1.41664453,13.3841133 2.05082422,12.75 2.83332227,12.75 C3.21691797,12.75 3.5646543,12.902668 3.8197207,13.1502305 C3.82460156,13.1554102 3.82891797,13.1609219 3.83396484,13.166002 C3.83901172,13.171082 3.84455664,13.1753652 3.84973633,13.1802461 C4.09729883,13.4353125 4.2499668,13.7830488 4.2499668,14.1666445 C4.25,14.9491758 3.61585352,15.5833223 2.83332227,15.5833223 Z M6.99915234,10.0042012 C6.99858789,10.0036367 6.99812305,10.0030059 6.99755859,10.0024414 C6.99699414,10.001877 6.99636328,10.0014121 6.99579883,10.0008477 C6.61223633,9.61642188 6.375,9.08590234 6.375,8.5 C6.375,7.32650195 7.32650195,6.375 8.5,6.375 C9.08444141,6.375 9.61373242,6.61110742 9.99792578,6.99300977 C9.99945312,6.99453711 10.0006816,6.99623047 10.002209,6.99775781 C10.0037363,6.99928516 10.0054297,7.00054688 10.006957,7.00204102 C10.3888926,7.38626758 10.625,7.91555859 10.625,8.5 C10.625,9.08397656 10.3892578,9.61283594 10.0079199,9.99696289 C10.0060605,9.99878906 10.004002,10.0003164 10.0021758,10.0021758 C10.0003496,10.0040352 9.99878906,10.0060605 9.99696289,10.0079199 C9.61283594,10.3892578 9.08397656,10.625 8.5,10.625 C7.91409766,10.625 7.38357812,10.3877637 6.99915234,10.0042012 Z M14.1666777,14.875 C13.7751797,14.875 13.4583555,14.5581758 13.4583555,14.1666777 C13.4583555,13.9715762 13.5371133,13.7950684 13.6645137,13.6670039 C13.6649453,13.6665723 13.6654102,13.6662402 13.6658418,13.6658086 C13.6662734,13.665377 13.6666055,13.6649121 13.6670371,13.6644805 C13.7950684,13.5370801 13.9715762,13.4583223 14.1667109,13.4583223 C14.558209,13.4583223 14.8750332,13.7751465 14.8750332,14.1666445 C14.8750332,14.5581426 14.5581758,14.875 14.1666777,14.875 Z" id="Shape" fill-rule="nonzero"></path>
                    </g>
                </g>
            </g>
        </g>
    </g>
</svg>