<?xml version="1.0" encoding="UTF-8"?>
<svg width="19px" height="19px" viewBox="0 0 19 19" version="1.1" xmlns="http://www.w3.org/2000/svg" xmlns:xlink="http://www.w3.org/1999/xlink">
    <!-- Generator: Sketch 63 (92445) - https://sketch.com -->
    <title>search</title>
    <desc>Created with Sketch.</desc>
    <g id="UI_Version-05" stroke="none" stroke-width="1" fill="none" fill-rule="evenodd">
        <g id="Dashboard-Expanded-View---UX-Monitoring" transform="translate(-342.000000, -51.000000)" fill="#C3CAE8" fill-rule="nonzero">
            <g id="search" transform="translate(342.000000, 51.000000)">
                <g id="Search-Logo" transform="translate(0.328000, 0.000000)">
                    <path d="M18.054,17.2956667 L13.5346667,12.5953333 C14.6966667,11.214 15.3333333,9.476 15.3333333,7.66666667 C15.3333333,3.43933333 11.894,-1.95399252e-14 7.66666667,-1.95399252e-14 C3.43933333,-1.95399252e-14 -7.63833441e-14,3.43933333 -7.63833441e-14,7.66666667 C-7.63833441e-14,11.894 3.43933333,15.3333333 7.66666667,15.3333333 C9.25366667,15.3333333 10.766,14.8546667 12.059,13.946 L16.6126667,18.682 C16.803,18.8796667 17.059,18.9886667 17.3333333,18.9886667 C17.593,18.9886667 17.8393333,18.8896667 18.0263333,18.7096667 C18.4236667,18.3273333 18.4363333,17.6933333 18.054,17.2956667 Z M7.66666667,2 C10.7913333,2 13.3333333,4.542 13.3333333,7.66666667 C13.3333333,10.7913333 10.7913333,13.3333333 7.66666667,13.3333333 C4.542,13.3333333 2,10.7913333 2,7.66666667 C2,4.542 4.542,2 7.66666667,2 Z" id="Shape"></path>
                </g>
            </g>
        </g>
    </g>
</svg>