<?xml version="1.0" encoding="UTF-8"?>
<svg width="17px" height="17px" viewBox="0 0 17 17" version="1.1" xmlns="http://www.w3.org/2000/svg" xmlns:xlink="http://www.w3.org/1999/xlink">
    <!-- Generator: Sketch 63 (92445) - https://sketch.com -->
    <title>miscellaneous</title>
    <desc>Created with Sketch.</desc>
    <g id="UI_Version-05" stroke="none" stroke-width="1" fill="none" fill-rule="evenodd">
        <g id="Dashboard-Expanded-View---UX-Monitoring" transform="translate(-39.000000, -503.000000)" fill="#8C8EA6" fill-rule="nonzero">
            <g id="Group-8" transform="translate(39.000000, 503.000000)">
                <g id="miscellaneous">
                    <g id="Settings-Logo">
                        <path d="M17,8.5 C17,7.30943555 16.2654805,6.29112891 15.225127,5.87177344 C15.8264355,4.79350195 15.6698828,3.40571094 14.7538086,2.48963672 C13.7985879,1.53441602 12.3315078,1.40435938 11.2364355,2.09803906 C10.9125723,0.889777344 9.81052734,0 8.5,0 C7.23333398,0 6.16120508,0.831140625 5.79842773,1.97774414 C4.73124609,1.42358398 3.38505859,1.59388281 2.48970312,2.48923828 C1.59388281,3.38505859 1.42338477,4.73124609 1.97777734,5.79842773 C0.831173828,6.16117187 0,7.23333398 0,8.5 C0,9.84429492 0.936328125,10.9690176 2.19223633,11.2596113 C1.67373633,12.3175625 1.85329883,13.6305801 2.73215234,14.5101973 C3.57043164,15.3484766 4.80223438,15.5513809 5.83156445,15.1202051 C6.22312891,16.2158418 7.26972461,17 8.5,17 C9.76669922,17 10.8388945,16.168793 11.2016055,15.022123 C12.2691855,15.5761504 13.6144766,15.4058184 14.5101973,14.5108613 C15.40625,13.6148086 15.5767148,12.2689531 15.0222559,11.2015723 C16.1688594,10.8387949 17,9.76666602 17,8.5 Z M9.91667773,9.91667773 L7.08335547,9.91667773 L7.08335547,7.08335547 L9.91667773,7.08335547 L9.91667773,9.91667773 Z M11.5761367,3.66326758 L11.7478633,3.49183984 C12.3013594,2.93787891 13.198541,2.93787891 13.7520703,3.491375 C14.3049023,4.04420703 14.3049023,4.94155469 13.7520703,5.49438672 L13.5798789,5.66657812 L11.5761699,5.66657812 L11.5761699,3.66326758 L11.5761367,3.66326758 Z M7.08332227,2.83332227 C7.08332227,2.05082422 7.71746875,1.41664453 8.5,1.41664453 C9.28253125,1.41664453 9.91667773,2.05079102 9.91667773,2.83332227 L9.91667773,5.66664453 L7.08335547,5.66664453 L7.08335547,3.36971875 L7.08335547,2.83332227 L7.08332227,2.83332227 Z M3.49144141,3.49094336 C4.04427344,2.93811133 4.94162109,2.93811133 5.49445312,3.49094336 L5.66664453,3.66313477 L5.66664453,5.66664453 L3.66310156,5.66664453 L3.49190625,5.49511719 C2.93794531,4.9416543 2.93794531,4.04447266 3.49144141,3.49094336 Z M1.41667773,8.5 C1.41667773,7.71750195 2.05082422,7.08332227 2.83335547,7.08332227 L3.36526953,7.08332227 C3.36669727,7.08332227 3.368125,7.08352148 3.36955273,7.08352148 L5.66667773,7.08352148 L5.66667773,9.91664453 L2.83332227,9.91664453 C2.05082422,9.91667773 1.41667773,9.28249805 1.41667773,8.5 Z M3.73412305,13.5086914 C3.18122461,12.9552949 3.18122461,12.0583457 3.73432227,11.50475 L3.90591602,11.3334883 L5.66664453,11.3334883 L5.66664453,13.5746992 C5.10992773,14.0609258 4.26457617,14.0391445 3.73412305,13.5086914 Z M8.5,15.5833223 C7.71750195,15.5833223 7.08332227,14.9491758 7.08332227,14.1666777 L7.11924805,14.130752 C7.25209375,13.9979062 7.32670117,13.8177461 7.32670117,13.6298828 L7.32670117,11.3333223 L9.91664453,11.3333223 L9.91664453,14.1666445 C9.91667773,14.9491758 9.28249805,15.5833223 8.5,15.5833223 Z M13.5086914,13.5088906 C12.9552949,14.0617891 12.0583457,14.0617891 11.50475,13.5086914 L11.3334883,13.3370977 L11.3334883,11.3333223 L13.3368652,11.3333223 L13.5087246,11.5051816 C14.0622207,12.0587109 14.0622207,12.9553613 13.5086914,13.5088906 Z M14.1666777,9.91667773 L13.6370547,9.91667773 C13.6346641,9.91664453 13.6323066,9.9163125 13.6298828,9.9163125 L11.3333223,9.9163125 L11.3333223,7.08332227 L14.1666445,7.08332227 C14.9491426,7.08332227 15.5833223,7.71746875 15.5833223,8.5 C15.5833223,9.28253125 14.9491758,9.91667773 14.1666777,9.91667773 Z" id="Shape"></path>
                    </g>
                </g>
            </g>
        </g>
    </g>
</svg>