<?xml version="1.0" encoding="UTF-8"?>
<svg width="209px" height="199px" viewBox="0 0 209 199" version="1.1" xmlns="http://www.w3.org/2000/svg" xmlns:xlink="http://www.w3.org/1999/xlink">
    <!-- Generator: Sketch 63 (92445) - https://sketch.com -->
    <title>Combined Shape</title>
    <desc>Created with Sketch.</desc>
    <g id="UI_Version-05" stroke="none" stroke-width="1" fill="none" fill-rule="evenodd" fill-opacity="0">
        <g id="Editing-Card---Info" transform="translate(-452.000000, -705.000000)" fill="#FFFFFF" stroke="#C3CAE8">
            <g id="Group-6" transform="translate(79.000000, 75.000000)">
                <g id="Group-4" transform="translate(373.000000, 630.000000)">
                    <path d="M201,0.5 L1.87049066,0.505485193 C1.4860515,0.538268979 1.14325866,0.71760293 0.899210422,1.00358347 C0.652459182,1.29273144 0.508415556,1.68707367 0.506867182,2.1434323 C0.549679849,2.58977703 0.79074602,2.99660632 1.16794971,3.24807544 L15.4989985,12.8024118 L15.5,190.999997 C15.5,193.071068 16.3394661,194.946068 17.6966991,196.303301 C19.0539322,197.660534 20.9289322,198.5 23,198.5 L201,198.5 C203.071068,198.5 204.946068,197.660534 206.303301,196.303301 C207.660534,194.946068 208.5,193.071068 208.5,191 L208.5,8 C208.5,5.92893219 207.660534,4.05393219 206.303301,2.69669914 C204.946068,1.33946609 203.071068,0.5 201,0.5 Z" id="Combined-Shape"></path>
                </g>
            </g>
        </g>
    </g>
</svg>