<?xml version="1.0" encoding="UTF-8"?>
<svg width="14px" height="18px" viewBox="0 0 14 18" version="1.1" xmlns="http://www.w3.org/2000/svg" xmlns:xlink="http://www.w3.org/1999/xlink">
    <!-- Generator: Sketch 63 (92445) - https://sketch.com -->
    <title>flags</title>
    <desc>Created with Sketch.</desc>
    <g id="UI_Version-05" stroke="none" stroke-width="1" fill="none" fill-rule="evenodd">
        <g id="Dashboard-Expanded-View---UX-Monitoring" transform="translate(-39.000000, -443.000000)" fill="#8C8EA6" fill-rule="nonzero">
            <g id="Group-6" transform="translate(39.000000, 443.000000)">
                <g id="flags">
                    <g id="Wiki-Logo">
                        <path d="M12.7500117,1.50001172 L1.50001172,1.50001172 L1.50001172,0.749988281 C1.50001172,0.335777344 1.16419922,0 0.749988281,0 C0.335777344,0 1.77635684e-14,0.335777344 1.77635684e-14,0.749988281 L1.77635684e-14,2.25 L1.77635684e-14,11.25 L1.77635684e-14,17.2500117 C1.77635684e-14,17.6642227 0.335777344,18 0.749988281,18 C1.16419922,18 1.49997656,17.6642227 1.49997656,17.2500117 L1.49997656,11.9999883 L12.7499766,11.9999883 C13.1641875,11.9999883 13.4999648,11.6642109 13.4999648,11.25 L13.4999648,2.25 C13.4999648,1.83578906 13.1642227,1.50001172 12.7500117,1.50001172 Z M12.0000234,10.5000117 L1.50001172,10.5000117 L1.50001172,2.99998828 L12.0000234,2.99998828 L12.0000234,10.5000117 L12.0000234,10.5000117 Z" id="Shape"></path>
                    </g>
                </g>
            </g>
        </g>
    </g>
</svg>